<svg id="Layer_1" data-name="Layer 1" xmlns="http://www.w3.org/2000/svg" viewBox="0 0 14.67 14.67"><defs><style>.cls-1{fill-rule:evenodd;}</style></defs><path class="cls-1" d="M4.31,0c.78,0,1,0,3,0s2.24,0,3,0a5.56,5.56,0,0,1,1.78.34,3.76,3.76,0,0,1,1.3.85,3.6,3.6,0,0,1,.84,1.3,5.3,5.3,0,0,1,.34,1.78c0,.78.05,1,.05,3s0,2.24-.05,3a5.3,5.3,0,0,1-.34,1.78,3.68,3.68,0,0,1-2.14,2.14,5.3,5.3,0,0,1-1.78.34c-.79,0-1,.05-3,.05s-2.24,0-3-.05a5.3,5.3,0,0,1-1.78-.34,3.6,3.6,0,0,1-1.3-.84,3.76,3.76,0,0,1-.85-1.3A5.56,5.56,0,0,1,0,10.36c0-.79,0-1,0-3s0-2.24,0-3A5.56,5.56,0,0,1,.38,2.53,3.79,3.79,0,0,1,2.53.38,5.56,5.56,0,0,1,4.31,0Zm6,1.32c-.78,0-1,0-3,0s-2.19,0-3,0A4.18,4.18,0,0,0,3,1.62a2.37,2.37,0,0,0-.85.54A2.24,2.24,0,0,0,1.62,3a4.18,4.18,0,0,0-.26,1.36c0,.77,0,1,0,3s0,2.19,0,3a4.24,4.24,0,0,0,.26,1.36,2.13,2.13,0,0,0,.54.84,2.27,2.27,0,0,0,.85.55,4,4,0,0,0,1.36.25c.77,0,1,0,3,0s2.19,0,3,0a4,4,0,0,0,1.36-.25,2.46,2.46,0,0,0,1.39-1.39,4,4,0,0,0,.25-1.36c0-.78,0-1,0-3s0-2.19,0-3A4,4,0,0,0,13.05,3a2.27,2.27,0,0,0-.55-.85,2.13,2.13,0,0,0-.84-.54A4.24,4.24,0,0,0,10.3,1.36ZM6.4,9.59a2.42,2.42,0,0,0,3-.9,2.38,2.38,0,0,0,.4-1.6A2.49,2.49,0,0,0,9.06,5.6a2.44,2.44,0,0,0-2-.7,2.29,2.29,0,0,0-1,.34A2.37,2.37,0,0,0,5.3,6a2.68,2.68,0,0,0-.39,1,2.47,2.47,0,0,0,.61,2A2.36,2.36,0,0,0,6.4,9.59ZM4.67,4.67A3.76,3.76,0,0,1,7.33,3.56a3.79,3.79,0,0,1,1.45.29A3.85,3.85,0,0,1,10,4.67a3.81,3.81,0,0,1,.82,4.11A3.85,3.85,0,0,1,10,10a3.77,3.77,0,0,1-2.67,1.1A3.73,3.73,0,0,1,4.67,10,3.78,3.78,0,0,1,3.56,7.33,3.74,3.74,0,0,1,4.67,4.67Zm7.27-.54a.94.94,0,0,0,.2-.29.85.85,0,0,0,.08-.35.84.84,0,0,0-.07-.35A.81.81,0,0,0,12,2.85a1,1,0,0,0-.3-.2.83.83,0,0,0-.35-.06.8.8,0,0,0-.34.07.86.86,0,0,0-.29.21.84.84,0,0,0-.24.62.87.87,0,0,0,.26.62.92.92,0,0,0,.61.26A1,1,0,0,0,11.94,4.13Z"/></svg>