<svg id="Layer_1" data-name="Layer 1" xmlns="http://www.w3.org/2000/svg" viewBox="0 0 13.34 13.33"><path d="M7.52,4.86,4.86,7.52a.54.54,0,0,0-.15.22.75.75,0,0,0,0,.26.74.74,0,0,0,0,.25.54.54,0,0,0,.15.22.6.6,0,0,0,.21.14.58.58,0,0,0,.26.06.62.62,0,0,0,.26-.06.6.6,0,0,0,.21-.14L8.47,5.8A.67.67,0,0,0,8,4.66.67.67,0,0,0,7.52,4.86Z"/><path d="M6.85,10.26,6,11.11a2.79,2.79,0,0,1-1.8.84,2.82,2.82,0,0,1-1.92-.57,2.74,2.74,0,0,1-.68-.87,2.5,2.5,0,0,1-.28-1.07,2.53,2.53,0,0,1,.18-1.09,2.61,2.61,0,0,1,.6-.93l1-1a.86.86,0,0,0,.15-.22A.74.74,0,0,0,3.24,6a.75.75,0,0,0-.05-.26A.86.86,0,0,0,3,5.52a.55.55,0,0,0-.22-.14.53.53,0,0,0-.25,0,.58.58,0,0,0-.26,0,.74.74,0,0,0-.22.14l-.84.86A4.09,4.09,0,0,0,.8,11.76a4,4,0,0,0,4.62,1.31,4.15,4.15,0,0,0,1.43-.91l.94-.95a.67.67,0,0,0-.94-1ZM11.77.81a4.11,4.11,0,0,0-5.42.45L5.63,2a.7.7,0,0,0-.2.22.63.63,0,0,0-.1.29.77.77,0,0,0,0,.3,1.35,1.35,0,0,0,.15.26,1.07,1.07,0,0,0,.22.15.75.75,0,0,0,.26,0,.7.7,0,0,0,.25,0,.71.71,0,0,0,.22-.15l.87-.87a2.75,2.75,0,0,1,1.8-.85A2.78,2.78,0,0,1,11,1.93a2.69,2.69,0,0,1,.7.87A2.83,2.83,0,0,1,12,3.87,2.74,2.74,0,0,1,11.83,5a2.59,2.59,0,0,1-.61.93l-1,.95a.55.55,0,0,0-.14.22.53.53,0,0,0-.05.25.58.58,0,0,0,.05.26.6.6,0,0,0,.36.36.58.58,0,0,0,.26,0,.53.53,0,0,0,.25,0,.55.55,0,0,0,.22-.14l.95-1a4.15,4.15,0,0,0,.91-1.43A4.06,4.06,0,0,0,11.77.81Z"/></svg>