<svg id="Layer_1" data-name="Layer 1" xmlns="http://www.w3.org/2000/svg" viewBox="0 0 16.25 17.83"><path d="M15.25,3.17h-3V2.58A2.53,2.53,0,0,0,11.53.76,2.53,2.53,0,0,0,9.71,0H6.54A2.58,2.58,0,0,0,4,2.58v.59H1a1,1,0,0,0,0,2h.58V15.25a2.58,2.58,0,0,0,2.59,2.58h7.91a2.58,2.58,0,0,0,2.59-2.58V5.17h.58a1,1,0,0,0,0-2ZM6,2.58a.58.58,0,0,1,.17-.41A.57.57,0,0,1,6.54,2H9.71a.58.58,0,0,1,.58.58v.59H6Zm6.71,12.67a.59.59,0,0,1-.18.41.57.57,0,0,1-.41.17H4.17a.59.59,0,0,1-.42-.17.58.58,0,0,1-.17-.41V5.17h9.09Z"/></svg>