<svg id="Layer_1" data-name="Layer 1" xmlns="http://www.w3.org/2000/svg" viewBox="0 0 16 9.15"><defs><style>.cls-1{fill-rule:evenodd;}</style></defs><path class="cls-1" d="M14.24,6.41a13.6,13.6,0,0,1,1.62,1.87v0a.55.55,0,0,1,.1.51.89.89,0,0,1-.6.33H13.08a1.57,1.57,0,0,1-.89-.32,5.67,5.67,0,0,1-.91-.92c-.44-.51-.83-1-1.22-1L9.92,7c-.29.1-.67.52-.67,1.63a.52.52,0,0,1-.46.55h-1A5.66,5.66,0,0,1,3.88,7.29,27.17,27.17,0,0,1,0,.86C-.08.58.15.43.41.43H2.72A.48.48,0,0,1,3.2.78a14.17,14.17,0,0,0,.88,1.84c.8,1.4,1.3,2,1.69,2A.39.39,0,0,0,6,4.54c.52-.28.42-2.12.4-2.5A2.39,2.39,0,0,0,6.11.86a1.16,1.16,0,0,0-.7-.4A.79.79,0,0,1,5.71.2,4.35,4.35,0,0,1,7.33,0h.35A3.67,3.67,0,0,1,8.8.12c.5.12.51.44.47,1.55,0,.32,0,.67,0,1.09v.3c0,.56,0,1.21.36,1.47a.35.35,0,0,0,.18,0c.14,0,.55,0,1.68-1.94A15.28,15.28,0,0,0,12.37.7a.47.47,0,0,1,.17-.21.32.32,0,0,1,.19,0h2.71c.3,0,.5,0,.54.16S16,1.33,14.73,3l-.55.73C13.05,5.22,13.05,5.29,14.24,6.41Z"/></svg>