<svg width="18" height="22" viewBox="0 0 18 22" fill="none" xmlns="http://www.w3.org/2000/svg">
<path d="M2.63411 0.166504C2.02356 0.166504 1.43802 0.409044 1.0063 0.840769C0.574571 1.27249 0.332031 1.85804 0.332031 2.46859V19.5311C0.332031 20.1416 0.574571 20.7272 1.0063 21.1589C1.43802 21.5906 2.02356 21.8332 2.63411 21.8332H15.3633C15.9738 21.8332 16.5594 21.5906 16.9911 21.1589C17.4228 20.7272 17.6654 20.1416 17.6654 19.5311V7.97409C17.6652 7.65104 17.5368 7.34127 17.3084 7.11284L10.7196 0.522921C10.4909 0.29456 10.1809 0.166358 9.85778 0.166504H2.63411ZM1.6862 2.46859C1.6862 1.94534 2.11086 1.52067 2.63411 1.52067H8.9987V6.26025C8.9987 6.79897 9.2127 7.31563 9.59364 7.69657C9.97457 8.0775 10.4912 8.2915 11.0299 8.2915H16.3112V19.5311C16.3112 19.7825 16.2113 20.0236 16.0336 20.2014C15.8558 20.3791 15.6147 20.479 15.3633 20.479H2.63411C2.38271 20.479 2.14161 20.3791 1.96384 20.2014C1.78607 20.0236 1.6862 19.7825 1.6862 19.5311V2.46859ZM15.2181 6.93734H11.0299C10.6562 6.93734 10.3529 6.634 10.3529 6.26025V2.07209L15.2181 6.93734Z" fill="white"/>
</svg>
