<svg width="17" height="19" viewBox="0 0 17 19" fill="none" xmlns="http://www.w3.org/2000/svg">
<path d="M1.375 4.75H15.625" stroke="#75837F" stroke-width="2" stroke-linecap="round" stroke-linejoin="round"/>
<path d="M5.33203 4.75004V3.16671C5.33203 2.74678 5.49885 2.34405 5.79578 2.04712C6.09271 1.75019 6.49544 1.58337 6.91536 1.58337H10.082C10.502 1.58337 10.9047 1.75019 11.2016 2.04712C11.4985 2.34405 11.6654 2.74678 11.6654 3.16671V4.75004M14.0404 4.75004V15.8334C14.0404 16.2533 13.8735 16.656 13.5766 16.953C13.2797 17.2499 12.877 17.4167 12.457 17.4167H4.54036C4.12044 17.4167 3.71771 17.2499 3.42078 16.953C3.12385 16.656 2.95703 16.2533 2.95703 15.8334V4.75004H14.0404Z" stroke="#75837F" stroke-width="2" stroke-linecap="round" stroke-linejoin="round"/>
</svg>
