<svg id="Layer_1" data-name="Layer 1" xmlns="http://www.w3.org/2000/svg" viewBox="0 0 12.75 12.75"><path d="M4.61,0H1.14A1.14,1.14,0,0,0,0,1.14V4.61A1.14,1.14,0,0,0,1.14,5.75H4.61A1.14,1.14,0,0,0,5.75,4.61V1.14A1.14,1.14,0,0,0,4.61,0ZM.94,4.61V1.14a.2.2,0,0,1,.2-.2H4.61a.2.2,0,0,1,.2.2V4.61a.2.2,0,0,1-.2.2H1.14A.2.2,0,0,1,.94,4.61Z"/><path d="M11.61,0H8.15A1.15,1.15,0,0,0,7,1.14V4.61A1.15,1.15,0,0,0,8.15,5.75h3.46a1.14,1.14,0,0,0,1.14-1.14V1.14A1.14,1.14,0,0,0,11.61,0ZM7.94,4.61V1.14a.2.2,0,0,1,.21-.2h3.46a.21.21,0,0,1,.21.2V4.61a.21.21,0,0,1-.21.2H8.15A.2.2,0,0,1,7.94,4.61Z"/><path d="M4.61,7H1.14A1.15,1.15,0,0,0,0,8.15v3.46a1.14,1.14,0,0,0,1.14,1.14H4.61a1.14,1.14,0,0,0,1.14-1.14V8.15A1.15,1.15,0,0,0,4.61,7ZM.94,11.61V8.15a.2.2,0,0,1,.2-.21H4.61a.2.2,0,0,1,.2.21v3.46a.21.21,0,0,1-.2.21H1.14A.21.21,0,0,1,.94,11.61Z"/><path d="M11.61,7H8.15A1.16,1.16,0,0,0,7,8.15v3.46a1.15,1.15,0,0,0,1.15,1.14h3.46a1.14,1.14,0,0,0,1.14-1.14V8.15A1.15,1.15,0,0,0,11.61,7ZM7.94,11.61V8.15a.21.21,0,0,1,.21-.21h3.46a.21.21,0,0,1,.21.21v3.46a.22.22,0,0,1-.21.21H8.15A.21.21,0,0,1,7.94,11.61Z"/></svg>