<svg id="Layer_1" data-name="Layer 1" xmlns="http://www.w3.org/2000/svg" xmlns:xlink="http://www.w3.org/1999/xlink" viewBox="0 0 35.44 39"><defs><style>.cls-1{fill:none;}.cls-2{clip-path:url(#clip-path);}</style><clipPath id="clip-path"><rect class="cls-1" x="-1.78" width="39" height="39"/></clipPath></defs><g class="cls-2"><path d="M2.21,26.1,19.58,8.74a5,5,0,1,1,7.12,7.12L11.56,31l-.89-.89L25.81,15a3.78,3.78,0,1,0-5.34-5.34L3.1,27A6.3,6.3,0,0,0,12,35.9L31.6,16.31A8.82,8.82,0,1,0,19.13,3.84L4,19l-.89-.89L18.24,3A10.08,10.08,0,1,1,32.49,17.2L12.9,36.79A7.56,7.56,0,0,1,2.21,26.1Z"/></g></svg>