<svg id="Layer_1" data-name="Layer 1" xmlns="http://www.w3.org/2000/svg" viewBox="0 0 15.14 12.31"><path d="M15.14,1.46A6.33,6.33,0,0,1,13.35,2,3.12,3.12,0,0,0,14.72.23a6.13,6.13,0,0,1-2,.75A3.11,3.11,0,0,0,9,.37,3.11,3.11,0,0,0,7.46,3.82a8.93,8.93,0,0,1-3.55-.95A8.73,8.73,0,0,1,1.05.57,3.16,3.16,0,0,0,.63,2.13,3.11,3.11,0,0,0,2,4.72,3.14,3.14,0,0,1,.61,4.33v0a3.14,3.14,0,0,0,.7,2A3.11,3.11,0,0,0,3.1,7.41a3,3,0,0,1-1.4.06A3.15,3.15,0,0,0,2.8,9a3.07,3.07,0,0,0,1.8.61A6.15,6.15,0,0,1,.74,11a6.12,6.12,0,0,1-.74,0,8.82,8.82,0,0,0,4.76,1.4A8.79,8.79,0,0,0,13.6,3.47c0-.13,0-.27,0-.4a6.59,6.59,0,0,0,1.55-1.61Z"/></svg>