<svg id="Layer_1" data-name="Layer 1" xmlns="http://www.w3.org/2000/svg" viewBox="0 0 14.95 15.33"><path d="M12.74,2.25A7.34,7.34,0,0,0,7.45,0,7.55,7.55,0,0,0,0,7.71a8,8,0,0,0,1.12,4l.19.28L.56,14.85l2.81-.72.28.15a7.34,7.34,0,0,0,3.8,1.05A7.61,7.61,0,0,0,15,7.66,7.77,7.77,0,0,0,12.74,2.25ZM11.23,9.86h0a3.38,3.38,0,0,1-.17.61,1.1,1.1,0,0,1-.2.25c-.08.09-.17.13-.25.22l-.08.09c-.08.08-.16.08-.29.17a1.49,1.49,0,0,1-.61.17H9.22c-.12,0-.28,0-.41-.09A7.24,7.24,0,0,1,5.87,9.65a2.12,2.12,0,0,0-.33-.35l-.16-.17a7.32,7.32,0,0,1-1.51-2.2l0-.13a2.51,2.51,0,0,1-.21-1,2.29,2.29,0,0,1,.45-1.33c.08-.09.13-.18.21-.26s.16-.13.24-.18l0,0c.08,0,.17,0,.25,0h.45a.44.44,0,0,1,.28.21A16.06,16.06,0,0,1,6.2,5.81a.56.56,0,0,1-.08.43c-.09.09-.13.22-.21.3s-.28.35-.28.35,0,.13,0,.21a1.48,1.48,0,0,0,.09.18l0,.08a4.76,4.76,0,0,0,.77,1,3.58,3.58,0,0,1,.29.26A4,4,0,0,0,8,9.47l.2.09a.33.33,0,0,0,.16.09h0a.23.23,0,0,0,.21-.13l.61-.73a.53.53,0,0,1,.29-.09s.08,0,.12,0c.41.22,1.06.52,1.06.52l.45.21.13.09Z"/></svg>