<svg id="Layer_1" data-name="Layer 1" xmlns="http://www.w3.org/2000/svg" viewBox="0 0 53 48"><defs><style>.cls-1{fill:#183029;opacity:0.1;isolation:isolate;}</style></defs><path class="cls-1" d="M21.94,0l3.3,3.11q-1.17,1.56-2.91,4.47-1.75,2.72-4.66,11.27A49,49,0,0,0,14.75,35a51.45,51.45,0,0,0,.39,6.41,23.3,23.3,0,0,0,1.17,4.28l.39,1.16L15.53,48a50.9,50.9,0,0,1-8-.58,30,30,0,0,1-5.24-1.17L1,45.67a21.58,21.58,0,0,1-1-7.39A38.52,38.52,0,0,1,2.14,25.65,47.37,47.37,0,0,1,7.57,14.77a86.06,86.06,0,0,1,6.6-8,35.69,35.69,0,0,1,5.63-5ZM49.7,0,53,3.11q-1.17,1.56-2.91,4.47-1.76,2.72-4.66,11.27A49,49,0,0,0,42.52,35a53.46,53.46,0,0,0,.38,6.41c.39,2,.72,3.37,1,4.28l.58,1.16L43.29,48a52.31,52.31,0,0,1-8.15-.58,23.73,23.73,0,0,1-4.85-1.17l-1.56-.58a21.83,21.83,0,0,1-1-7.39A39.4,39.4,0,0,1,33.2,18.46q5.63-9.53,11.06-14Z"/></svg>