<svg id="Layer_1" data-name="Layer 1" xmlns="http://www.w3.org/2000/svg" xmlns:xlink="http://www.w3.org/1999/xlink" viewBox="0 0 161 42"><defs><style>.cls-1{fill:none;}.cls-2{clip-path:url(#clip-path);}.cls-3{fill:#fff;}.cls-4{fill:#183029;}.cls-5{fill:#c6cbca;}</style><clipPath id="clip-path"><rect class="cls-1" width="161" height="42"/></clipPath></defs><g class="cls-2"><path class="cls-3" d="M59.74,14.22,55.63,7H57l3.33,6h.07l3.33-6h1.35L61,14.22v3.91H59.76Z"/><path class="cls-3" d="M70.55,7h1.11l4.58,11.18H75L73.72,15H68.51l-1.27,3.11H66Zm2.71,7L71.13,8.63,69,13.9Z"/><path class="cls-3" d="M79.71,7H80.9V17h5.69v1.11H79.71Z"/><path class="cls-3" d="M90,7h1.19V18.13H90Z"/><path class="cls-3" d="M96,7h1.19V17h5.7v1.11H96Z"/><path class="cls-3" d="M110.76,6.79A5.7,5.7,0,0,1,116,10.34a5.93,5.93,0,0,1,.33,3.33,5.81,5.81,0,0,1-1.56,2.94,5.65,5.65,0,0,1-6.22,1.25A5.67,5.67,0,0,1,106,15.74a5.77,5.77,0,0,1,.7-7.27,5.66,5.66,0,0,1,1.85-1.25A5.85,5.85,0,0,1,110.76,6.79Zm4.52,5.76a4.61,4.61,0,0,0-.79-2.52,4.5,4.5,0,0,0-4.66-1.89,4.45,4.45,0,0,0-2.29,1.26,4.57,4.57,0,0,0-1.22,2.34,4.56,4.56,0,0,0,1.93,4.67,4.47,4.47,0,0,0,2.51.76A4.42,4.42,0,0,0,114,15.82a4.5,4.5,0,0,0,1.28-3.27Z"/><path class="cls-3" d="M118.82,7h1.26l3.65,9.51L127.34,7h1.27l-4.36,11.18h-1.1Z"/><path class="cls-3" d="M66.93,36.07q0,.09-.06.09H64.93A4.32,4.32,0,0,1,62.79,35a4.52,4.52,0,0,1-3.3,1.32A3.92,3.92,0,0,1,57.74,36a2.35,2.35,0,0,1-1-.91,2.33,2.33,0,0,1-.34-1.21,2.47,2.47,0,0,1,.58-1.63,9.21,9.21,0,0,1,1.68-1.5,7,7,0,0,1-.48-.84,4.25,4.25,0,0,1-.48-1.82A2.85,2.85,0,0,1,58,26.73a2.73,2.73,0,0,1,1-1,3,3,0,0,1,1.48-.37,2.43,2.43,0,0,1,1.4.4,1.34,1.34,0,0,1,.45.55,1.31,1.31,0,0,1,.13.7,2.18,2.18,0,0,1-.33,1.17,3.75,3.75,0,0,1-.81.92c-.32.26-.75.57-1.3.94l-.3.2a15.12,15.12,0,0,0,3.51,3.67,4.45,4.45,0,0,0,.48-2.09,1.51,1.51,0,0,0-.26-1,1.08,1.08,0,0,0-.43-.27,1.12,1.12,0,0,0-.51-.06s0,0-.06-.1,0-.09.06-.09H66s.07,0,.07.1,0,.1-.07.1a2.47,2.47,0,0,0-.81.1.8.8,0,0,0-.39.31,2.9,2.9,0,0,0-.23.62,9.72,9.72,0,0,1-1.1,2.59,14.35,14.35,0,0,0,1.89,1.2,6.76,6.76,0,0,0,1.48.6C66.93,36,66.93,36,66.93,36.07Zm-4.36-1.21a3.57,3.57,0,0,1-.38-.3,19.17,19.17,0,0,1-1.88-1.73A14.84,14.84,0,0,1,58.78,31a4.46,4.46,0,0,0-.9,1,2.32,2.32,0,0,0-.33,1.23,2.51,2.51,0,0,0,.35,1.27,2.58,2.58,0,0,0,1,.94,3,3,0,0,0,1.45.35,3,3,0,0,0,1.21-.25,3.13,3.13,0,0,0,1-.71Zm-3-4.81a7.16,7.16,0,0,0,1.3-1.28,2.52,2.52,0,0,0,.45-1.43A1.65,1.65,0,0,0,61,26.19a1.3,1.3,0,0,0-1-.41c-.82,0-1.22.5-1.22,1.51a5.42,5.42,0,0,0,.87,2.77Z"/><path class="cls-3" d="M71.57,25h4.19a3.54,3.54,0,0,1,1.33.26A3.58,3.58,0,0,1,79,27.16a3.59,3.59,0,0,1,.26,1.34A3.68,3.68,0,0,1,79,29.85,3.61,3.61,0,0,1,78.22,31a3.49,3.49,0,0,1-2.46,1h-3v4.15H71.57Zm4.19,5.91a2.4,2.4,0,0,0,1.68-4.09,2.38,2.38,0,0,0-1.68-.71h-3v4.8Z"/><path class="cls-3" d="M85.63,25h1.11l4.59,11.18H90.06l-1.27-3.12H83.57l-1.26,3.12H81Zm2.71,6.94-2.13-5.26L84.05,32Z"/><path class="cls-3" d="M94.77,25H99.2a3.31,3.31,0,0,1,2.19.76,3.39,3.39,0,0,1,.73,4.33,3.36,3.36,0,0,1-1.81,1.46l2.61,4.63h-1.35L99.11,31.7H96v4.47H94.76Zm4.43,5.6a2.22,2.22,0,0,0,1.57-.66,2.25,2.25,0,0,0,0-3.16,2.22,2.22,0,0,0-1.57-.66H96v4.48Z"/><path class="cls-3" d="M109,26.1h-3.48V25h8.14V26.1h-3.48v10H109Z"/><path class="cls-3" d="M117.08,25h1l6.81,9V25h1.18V36.17h-1l-6.78-9v9h-1.18Z"/><path class="cls-3" d="M130.88,25h7.6V26.1h-6.42v3.68h5.15V30.9h-5.15v4.15h6.56v1.12h-7.74Z"/><path class="cls-3" d="M142.28,25h4.43a3.31,3.31,0,0,1,2.19.76,3.46,3.46,0,0,1,1.16,2,3.43,3.43,0,0,1-.43,2.3,3.39,3.39,0,0,1-1.81,1.46l2.61,4.63h-1.36l-2.46-4.47h-3.16v4.47h-1.17Zm4.43,5.6a2.22,2.22,0,0,0,1.57-.66,2.25,2.25,0,0,0,0-3.16,2.22,2.22,0,0,0-1.57-.66h-3.25v4.48Z"/><path class="cls-3" d="M154.19,33.84a3.79,3.79,0,0,0,1.34,1,3.87,3.87,0,0,0,1.67.33c1.66,0,2.52-.88,2.52-2.08,0-2.88-6-1.28-6-5.27,0-1.63,1.36-3,3.56-3a4.21,4.21,0,0,1,1.78.37,4.32,4.32,0,0,1,1.47,1.07l-.8.8a3,3,0,0,0-1.09-.84,3,3,0,0,0-1.36-.28c-1.52,0-2.37.91-2.37,1.92,0,2.87,6,1.28,6,5.27,0,1.83-1.35,3.2-3.71,3.2a4.7,4.7,0,0,1-3.73-1.68Z"/><path class="cls-3" d="M41.76-.22H0V41.89H41.76Z"/><path class="cls-4" d="M10.26,22.43,6.11,15.1H7.47l3.35,6h.08l3.36-6h1.36l-4.16,7.33v4h-1.2Z"/><path class="cls-4" d="M27.85,15.1h4.26a3.46,3.46,0,0,1,2.48,1,3.56,3.56,0,0,1,0,5,3.46,3.46,0,0,1-2.48,1h-3v4.2h-1.2Zm4.26,6a2.38,2.38,0,0,0,1.69-.7,2.43,2.43,0,0,0,0-3.43,2.38,2.38,0,0,0-1.69-.71h-3v4.84Z"/><path class="cls-4" d="M25.93,26.3c0,.05,0,.09-.05.09H24A4.24,4.24,0,0,1,22,25.32a4.2,4.2,0,0,1-3.16,1.25,3.86,3.86,0,0,1-1.67-.32,2.22,2.22,0,0,1-1-.87,2.25,2.25,0,0,1-.32-1.16,2.31,2.31,0,0,1,.56-1.55A8.71,8.71,0,0,1,18,21.24a7.9,7.9,0,0,1-.46-.8,4.35,4.35,0,0,1-.45-1.73,2.55,2.55,0,0,1,.34-1.3,2.52,2.52,0,0,1,.95-.94,2.75,2.75,0,0,1,1.4-.35,2.33,2.33,0,0,1,1.36.37,1.48,1.48,0,0,1,.43.53,1.29,1.29,0,0,1,.12.67,1.93,1.93,0,0,1-.32,1.12,3.55,3.55,0,0,1-.76.88c-.31.25-.72.54-1.25.91l-.28.19a14.51,14.51,0,0,0,3.35,3.51,4.35,4.35,0,0,0,.46-2,1.58,1.58,0,0,0-.25-.95,1.29,1.29,0,0,0-.42-.26,1.11,1.11,0,0,0-.48-.05s-.06,0-.06-.09,0-.1.06-.1h3.36c.05,0,.06,0,.06.1s0,.1-.06.1a2.07,2.07,0,0,0-.78.1.76.76,0,0,0-.37.29,2.6,2.6,0,0,0-.21.59,9.57,9.57,0,0,1-1.06,2.48,14.2,14.2,0,0,0,1.81,1.15,6.94,6.94,0,0,0,1.41.57S25.94,26.24,25.93,26.3Zm-4.16-1.15c-.13-.09-.25-.19-.37-.29a18.83,18.83,0,0,1-1.8-1.66,12.29,12.29,0,0,1-1.46-1.76,4.14,4.14,0,0,0-.88,1,2.11,2.11,0,0,0-.32,1.17,2.39,2.39,0,0,0,.34,1.22,2.44,2.44,0,0,0,.95.91,2.83,2.83,0,0,0,1.39.34,3,3,0,0,0,1.17-.24A3,3,0,0,0,21.77,25.15Zm-2.85-4.61a6.23,6.23,0,0,0,1.23-1.23,2.17,2.17,0,0,0,.45-1.37,1.49,1.49,0,0,0-.36-1.09,1.14,1.14,0,0,0-.44-.31,1.21,1.21,0,0,0-.53-.09c-.78,0-1.17.48-1.17,1.45A5.16,5.16,0,0,0,18.92,20.54Z"/><path class="cls-5" d="M41.76,32v9.94H31.92Z"/></g></svg>