<svg id="Layer_1" data-name="Layer 1" xmlns="http://www.w3.org/2000/svg" viewBox="0 0 147 38"><defs><style>.cls-1{fill:#183029;}.cls-2{fill:#fff;}.cls-3{fill:#75837f;}</style></defs><path class="cls-1" d="M54.55,13,50.79,6.44H52l3,5.38h.07l3-5.38h1.24L55.66,13v3.51H54.57Z"/><path class="cls-1" d="M64.43,6.44h1l4.19,10H68.48l-1.16-2.8H62.57l-1.16,2.8H60.25Zm2.48,6.24L65,8,63,12.68Z"/><path class="cls-1" d="M72.8,6.44h1.09v9h5.2v1H72.8Z"/><path class="cls-1" d="M82.23,6.44h1.09v10H82.23Z"/><path class="cls-1" d="M87.66,6.44h1.09v9H94v1H87.66Z"/><path class="cls-1" d="M101.17,6.3a5.16,5.16,0,1,1-2,9.93,5.16,5.16,0,0,1-2.83-6.75A5.4,5.4,0,0,1,97.48,7.8a5,5,0,0,1,1.69-1.11A5.28,5.28,0,0,1,101.17,6.3Zm4.13,5.16a4.09,4.09,0,0,0-.72-2.26,4.14,4.14,0,0,0-7.47,1.54,4.1,4.1,0,0,0,1.77,4.19,4.13,4.13,0,0,0,2.29.69,4.13,4.13,0,0,0,3-1.21,4.08,4.08,0,0,0,.88-1.36,3.91,3.91,0,0,0,.29-1.59Z"/><path class="cls-1" d="M108.54,6.44h1.15L113,15l3.31-8.54h1.15l-4,10h-1Z"/><path class="cls-1" d="M61.12,32.58c0,.05,0,.08,0,.08H59.29a4,4,0,0,1-1.95-1,4.12,4.12,0,0,1-3,1.18,3.61,3.61,0,0,1-1.59-.31,2.13,2.13,0,0,1-1-.82,2.09,2.09,0,0,1-.31-1.09A2.25,2.25,0,0,1,52,29.16a8.56,8.56,0,0,1,1.53-1.35,5.08,5.08,0,0,1-.44-.75,3.71,3.71,0,0,1-.44-1.63A2.39,2.39,0,0,1,53,24.2a2.45,2.45,0,0,1,.9-.88A2.65,2.65,0,0,1,55.23,23a2.23,2.23,0,0,1,1.28.35,1.29,1.29,0,0,1,.41.49,1.18,1.18,0,0,1,.12.64,2,2,0,0,1-.3,1.05,3.4,3.4,0,0,1-.74.82c-.29.23-.69.52-1.19.84l-.27.18a13.38,13.38,0,0,0,3.2,3.3,4,4,0,0,0,.44-1.88,1.4,1.4,0,0,0-.23-.89,1.1,1.1,0,0,0-.4-.24,1.07,1.07,0,0,0-.47,0s0,0,0-.09,0-.08,0-.08H60.3s.06,0,.06.09,0,.09-.06.09a2.31,2.31,0,0,0-.74.09.71.71,0,0,0-.36.28,2.6,2.6,0,0,0-.21.55,8.62,8.62,0,0,1-1,2.33,12.89,12.89,0,0,0,1.74,1.07,5.45,5.45,0,0,0,1.35.54S61.12,32.53,61.12,32.58Zm-4-1.09-.35-.26a18.07,18.07,0,0,1-1.72-1.56A12.82,12.82,0,0,1,53.68,28a3.72,3.72,0,0,0-.83.94,2,2,0,0,0-.3,1.09,2.16,2.16,0,0,0,.32,1.14,2.28,2.28,0,0,0,.92.85,2.73,2.73,0,0,0,1.32.31,2.65,2.65,0,0,0,1.11-.22,2.82,2.82,0,0,0,.93-.64Zm-2.73-4.31A6,6,0,0,0,55.6,26,2.09,2.09,0,0,0,56,24.75a1.5,1.5,0,0,0-.34-1,1.23,1.23,0,0,0-.43-.28,1.1,1.1,0,0,0-.51-.09c-.74,0-1.11.45-1.11,1.36a4.8,4.8,0,0,0,.8,2.49Z"/><path class="cls-1" d="M65.36,22.63h3.83a3.2,3.2,0,0,1,1.22.24,3.15,3.15,0,0,1,2,2.92A3.16,3.16,0,0,1,71.44,28a3.13,3.13,0,0,1-1,.68,3.2,3.2,0,0,1-1.22.24H66.44v3.73H65.36Zm3.83,5.31a2.2,2.2,0,0,0,1.54-.63,2.16,2.16,0,0,0,0-3,2.2,2.2,0,0,0-1.54-.63H66.44v4.31Z"/><path class="cls-1" d="M78.21,22.63h1l4.2,10H82.26l-1.16-2.8H76.33l-1.15,2.8H74Zm2.48,6.24-2-4.73-2,4.75Z"/><path class="cls-1" d="M86.56,22.63h4a3.08,3.08,0,0,1,2,.69,3,3,0,0,1-1,5.19L94,32.67H92.77l-2.24-4H87.64v4H86.56Zm4,5a2,2,0,1,0,0-4h-3v4Z"/><path class="cls-1" d="M99.56,23.63H96.38v-1h7.44v1h-3.18v9H99.56Z"/><path class="cls-1" d="M107,22.63h.94l6.22,8.1v-8.1h1.08v10h-.94l-6.2-8.1v8.1H107Z"/><path class="cls-1" d="M119.56,22.63h6.94v1h-5.87v3.3h4.71v1h-4.71v3.73h6v1h-7.07Z"/><path class="cls-1" d="M130,22.63H134a3.08,3.08,0,0,1,2,.69,3,3,0,0,1-1,5.19l2.39,4.16h-1.24l-2.25-4H131v4H130Zm4.05,5a2,2,0,1,0,0-4h-3v4Z"/><path class="cls-1" d="M140.85,30.58a3.44,3.44,0,0,0,1.24.93,3.55,3.55,0,0,0,1.51.3c1.52,0,2.31-.8,2.31-1.87,0-2.58-5.49-1.15-5.49-4.73,0-1.47,1.24-2.73,3.25-2.73a4.08,4.08,0,0,1,1.62.33,3.92,3.92,0,0,1,1.35,1l-.73.72a2.75,2.75,0,0,0-1-.75,2.78,2.78,0,0,0-1.24-.25c-1.38,0-2.17.82-2.17,1.72,0,2.58,5.5,1.15,5.5,4.73,0,1.64-1.24,2.87-3.4,2.87a4.3,4.3,0,0,1-1.87-.36,4.42,4.42,0,0,1-1.53-1.14Z"/><path class="cls-1" d="M38.12,0H0V37.8H38.12Z"/><path class="cls-2" d="M9.34,20.34,5.55,13.75H6.79l3.06,5.43h.08L13,13.75h1.23l-3.79,6.59v3.55H9.34Z"/><path class="cls-2" d="M25.42,13.75h3.89a3.24,3.24,0,0,1,2.27.94,3.15,3.15,0,0,1,.94,2.25,3.19,3.19,0,0,1-.94,2.25,3.23,3.23,0,0,1-2.27.93H26.53v3.77h-1.1Zm3.89,5.36a2.17,2.17,0,0,0,1.54-.64,2.12,2.12,0,0,0,.65-1.53,2.14,2.14,0,0,0-.65-1.54,2.2,2.2,0,0,0-1.54-.63H26.53v4.34Z"/><path class="cls-2" d="M23.66,23.81c0,.05,0,.08-.05.08h-1.7a3.88,3.88,0,0,1-1.87-1,3.87,3.87,0,0,1-1.32.86,4.19,4.19,0,0,1-1.57.27,3.62,3.62,0,0,1-1.52-.3,2,2,0,0,1-.7-3.21,8.13,8.13,0,0,1,1.46-1.29,5.47,5.47,0,0,1-.41-.71A3.65,3.65,0,0,1,15.57,17a2.26,2.26,0,0,1,.3-1.16,2.29,2.29,0,0,1,.87-.85A2.61,2.61,0,0,1,18,14.67a2.16,2.16,0,0,1,1.24.33,1.32,1.32,0,0,1,.4.48,1.36,1.36,0,0,1,.11.6,1.89,1.89,0,0,1-.29,1,3.26,3.26,0,0,1-.7.78c-.28.23-.66.49-1.14.82l-.26.17A12.94,12.94,0,0,0,20.45,22a3.82,3.82,0,0,0,.41-1.79,1.41,1.41,0,0,0-.22-.85.86.86,0,0,0-.39-.23.94.94,0,0,0-.44-.05s0,0,0-.09,0-.08,0-.08h3.07c.05,0,.06,0,.06.09s0,.08-.06.08a1.91,1.91,0,0,0-.71.1.63.63,0,0,0-.34.26,2.39,2.39,0,0,0-.19.53,8.61,8.61,0,0,1-1,2.22,13.39,13.39,0,0,0,1.65,1,5.58,5.58,0,0,0,1.3.51S23.66,23.76,23.66,23.81Zm-3.81-1a3.75,3.75,0,0,1-.33-.26A16.46,16.46,0,0,1,17.87,21a12.5,12.5,0,0,1-1.33-1.58,3.82,3.82,0,0,0-.81.89,2.09,2.09,0,0,0,0,2.14,2.15,2.15,0,0,0,.87.82,2.52,2.52,0,0,0,1.26.3A2.8,2.8,0,0,0,19,23.39,2.51,2.51,0,0,0,19.85,22.77Zm-2.6-4.13a5.61,5.61,0,0,0,1.13-1.1,2,2,0,0,0,.41-1.23,1.34,1.34,0,0,0-.33-1,1.09,1.09,0,0,0-.4-.27,1.18,1.18,0,0,0-.49-.08c-.71,0-1.06.43-1.06,1.29A4.57,4.57,0,0,0,17.25,18.64Z"/><path class="cls-3" d="M38.06,29.08V38h-9Z"/></svg>