<svg id="Layer_1" data-name="Layer 1" xmlns="http://www.w3.org/2000/svg" xmlns:xlink="http://www.w3.org/1999/xlink"
    viewBox="0 0 91 22">
    <defs>
        <style>
            .cls-1 {
                fill: none;
            }

            .cls-2 {
                clip-path: url(#clip-path);
            }

            .cls-3 {
                fill: #183029;
            }

            .cls-3,
            .cls-4 {
                fill-rule: evenodd;
            }

            .cls-4 {
                fill: #f9cc46;
            }
        </style>
        <clipPath id="clip-path">
            <rect class="cls-1" width="91" height="22" />
        </clipPath>
    </defs>
    <g class="cls-2">
        <path class="cls-3"
            d="M48.93,5.33c.21.22,2.18,5.49,2.39,6.15a9.73,9.73,0,0,0,.86,2c.69.15.75-.54,1-1.08,1.12-3,2.82-7.27,3.67-10.18.59-1.4.64-1.78-.43-1.78s-1,.7-1.38,1.62c-.37,1.73-1.81,5.39-2.34,7.07,0,.22,0,.22-.27.22-.89-2.5-1.92-5.56-2.92-8-.27-.48-.75-.58-1.07.5-.54,1.72-1.29,3.76-1.87,5.43,0,0-.69,2.11-.75,2.21A6.71,6.71,0,0,1,45,7.5c-.8-2-1.5-4.14-2.18-6.13-.17-.38-.17-.6-.54-.82A2.22,2.22,0,0,0,41.1.44c-1.06.17-.38,1-.16,1.67,1.29,3.5,2.72,7.71,4.15,11.05a.54.54,0,0,0,.16.21.64.64,0,0,0,.24.1.49.49,0,0,0,.26,0,.45.45,0,0,0,.2-.16C46.16,12.87,48.77,5.33,48.93,5.33Z" />
        <path class="cls-3"
            d="M.21.65a1,1,0,0,0,.05.65C.48,2.21-.17,12.61,0,13a2.56,2.56,0,0,0,1.66.15c.26-.27.16-.53.16-1,0-1.84.15-3.61.15-5.5.06-.7.12-1.18.12-1.61s0-.38.1-.49a29,29,0,0,1,2,3.19c.32.64.95,1.62,1.37,2.38.65,1.18,1,.37,1.12.1C7,9.81,9.9,4.69,10.11,4.58a55.65,55.65,0,0,1,.19,5.71c0,2.8-.32,3.07,1.43,3,.54,0,.59-.43.54-.92V9.48c-.14-2.32-.24-5-.24-7.27,0-.27.1-1.3.1-1.45a1,1,0,0,0-.61-.34,1.07,1.07,0,0,0-.68.11c-.37.23-.48.71-.75,1C9,3.5,7.56,5.7,6.54,7.54c-.37.65-.37.43-.69,0-.7-1-1.6-2.8-2.23-3.83L2.33,1.56a4.71,4.71,0,0,0-.68-1C1.29.27.58.48.21.65Z" />
        <path class="cls-3"
            d="M68.15,6.68a3.51,3.51,0,0,1,1.57-.74A3.38,3.38,0,0,1,71.45,6c1.7.76,1.92,3.3,1.18,4.53a2.69,2.69,0,0,1-1.32,1.06,2.66,2.66,0,0,1-1.67.1,3.69,3.69,0,0,1-1.49-.65Zm0-1.83a33.64,33.64,0,0,1,0-4.26c0-.59-.21-.69-.75-.49-1.29.55-1.29.33-1.11,1.51.1.6,0,7.55,0,8.52,0,1.93-.27,2.37,2.5,3.18a6,6,0,0,0,4.6-.92c2.71-2.26,2-8.61-3-8.13a9.47,9.47,0,0,0-1.29.16c-.17,0-.8.43-.87.43Z" />
        <path class="cls-3"
            d="M30.6,13.14a5.1,5.1,0,0,0,.17-2.09,16.45,16.45,0,0,1,0-2.22c.15,0,.32.27.64.6s3,3.13,3.4,3.44a1.24,1.24,0,0,0,1.12.32c.38,0,1,0,1.17-.26,0-.37-.74-1-1.06-1.3s-.74-.74-1.11-1.18a22.18,22.18,0,0,1-2.29-2.36C32.64,8,35.56,5.48,36.1,5c.21-.22.42-.27.37-.59a3.35,3.35,0,0,0-2,0c-.26.11-2,1.73-2.5,2.16-.15.15-1.07,1.13-1.17,1.08-.15-.5,0-7.23-.1-7.61S28.75.27,28.8.92A6.59,6.59,0,0,1,29,2.32v9.31c0,.33-.1,1.3.12,1.46A3.44,3.44,0,0,0,30.6,13.14Z" />
        <path class="cls-3"
            d="M16.73,8.73c.6-.16,2.58.32,2.67.86a10,10,0,0,1,0,1.73c-.37.48-2.94,1.44-3.79-.27a2,2,0,0,1-.17-.79,1.92,1.92,0,0,1,.17-.78,1.76,1.76,0,0,1,.48-.5A1.74,1.74,0,0,1,16.73,8.73Zm2.72-.65a4.53,4.53,0,0,0-1.65-.69,6,6,0,0,0-2.19.15,2.94,2.94,0,0,0-2.11,2.79,2.94,2.94,0,0,0,2,2.86,4.7,4.7,0,0,0,3.14,0c.22-.1.65-.37.8-.42s.22.37.43.48A2.14,2.14,0,0,0,21.32,13c.27-.26.32-.22.15-.6a2.75,2.75,0,0,1-.26-1.62V6.89a2.27,2.27,0,0,0-.37-1.56c-1-2.05-7.14-1.24-6.66.49s1.29-.6,4-.27c1.45.16,1.3,1.56,1.3,2.53Z" />
        <path class="cls-3"
            d="M82.48,7.82H78.06a2.32,2.32,0,0,1,.68-1.41,2.6,2.6,0,0,1,1.5-.64,2.26,2.26,0,0,1,.85.1,2.12,2.12,0,0,1,.74.43,2,2,0,0,1,.51.68A1.84,1.84,0,0,1,82.48,7.82ZM77.94,9.21c.33-.16,5.15,0,6,0s.48-2.91-1.12-4.09a4.29,4.29,0,0,0-4.58-.37,4.39,4.39,0,0,0-2.31,4,4.45,4.45,0,0,0,2.15,4c1.43,1,5.27.92,5.74-.59.6-1.94-.79-.86-1.28-.65a4.52,4.52,0,0,1-1.29.32C78.43,12.18,77.74,9.64,77.94,9.21Z" />
        <path class="cls-3"
            d="M58.62,7.81a2.2,2.2,0,0,1,.7-1.45,2.17,2.17,0,0,1,1.49-.59c1.1-.12,2.39.86,2.17,2ZM58.4,9.12h6c.7,0,.58-.43.53-1a4.2,4.2,0,0,0-.65-2A4.15,4.15,0,0,0,62.7,4.67a4.06,4.06,0,0,0-4.08.14A4.39,4.39,0,0,0,57,6.52a4.57,4.57,0,0,0-.5,2.32A4.24,4.24,0,0,0,57,11.13a4.07,4.07,0,0,0,1.67,1.62c1.82,1.13,5.38.65,5.7-.64,0-.37.26-1.3-.32-1.08a7,7,0,0,1-2.25.82,3.15,3.15,0,0,1-1.26-.08,3.3,3.3,0,0,1-1.14-.57C58.94,10.82,58.19,9.69,58.4,9.12Z" />
        <path class="cls-3"
            d="M87.32,13.19c.32-.32.27-.48.27-1v-1.3c0-1.72-.33-4.57,1.64-5,.43-.11.53.26,1.07.15A2.56,2.56,0,0,0,91,5c0-.82-1.29-1-2.46-.44-.37.17-.68.76-1,.81,0-.48.1-.69-.22-1.12a2.88,2.88,0,0,0-1.17.38c-.53.26-.63.26-.53.91s0,5.12,0,6.19C85.72,13.36,85.72,13.31,87.32,13.19Z" />
        <path class="cls-3"
            d="M24.54,13.14V13a24.16,24.16,0,0,0,.12-4c0-1,.25-2.69,1.37-3,.91-.32,1,.53,1.55,0C29,4.57,27.1,4,26,4.47s-1,.86-1.28,1a2.29,2.29,0,0,1,0-.64c0-.27-.12-.27-.22-.43a2.24,2.24,0,0,0-1.18.33c-.52.21-.69.26-.52.91a20.19,20.19,0,0,1,.1,3v3C23,13.19,22.78,13.31,24.54,13.14Z" />
        <path class="cls-4"
            d="M48.55,14.88a28.56,28.56,0,0,0-6.23,1.49c-.63.28-1.29.43-1.92.71-1.28.48-2.5.91-3.77,1.4-.42.16-3.46,1.07-4,1.19-2.58.64-6.44,1.39-8.9.26-1.17-.59-1.28,1.24,1.38,1.89a10.92,10.92,0,0,0,4.69-.21c1.28-.27,2.83-.76,4.05-1.13s2.67-.81,4-1.19a9.81,9.81,0,0,1,1-.32l2-.6c.37-.11.64-.26,1-.38l2-.48c.37-.11.64-.21,1-.33a38.39,38.39,0,0,1,8.2-.86,19.81,19.81,0,0,1,2.4.27c1.29.16,1-.53.15-1A13.36,13.36,0,0,0,48.55,14.88Z" />
    </g>
</svg>