<svg id="Layer_1" data-name="Layer 1" xmlns="http://www.w3.org/2000/svg" viewBox="0 0 1544.35 167.53"><defs><style>.cls-1{fill:#132d26;}</style></defs><path class="cls-1" d="M156.18,163.26c0,.92-.4,1.32-.87,1.32H126.59q-10.23,0-31.66-16.17a66.19,66.19,0,0,1-48.7,19.09,60,60,0,0,1-25.79-5A34.91,34.91,0,0,1,5,149.27a33.3,33.3,0,0,1-5-17.63A35.46,35.46,0,0,1,8.62,108,142.17,142.17,0,0,1,33.34,86.24a100.29,100.29,0,0,1-7-12.13A61.46,61.46,0,0,1,19.24,47.6a38.76,38.76,0,0,1,5.21-19.88A39.91,39.91,0,0,1,39.08,13.47,43.53,43.53,0,0,1,60.86,8.16a36.6,36.6,0,0,1,20.71,5.7,20.59,20.59,0,0,1,6.69,8,20.28,20.28,0,0,1,1.86,10.23,31.32,31.32,0,0,1-4.88,17,55.13,55.13,0,0,1-12,13.26C68.61,66.16,62.19,70.73,54,76L49.7,79a220.37,220.37,0,0,0,51.84,53.35,65.21,65.21,0,0,0,7.08-30.42,22.73,22.73,0,0,0-3.81-14.38,17.17,17.17,0,0,0-6.45-3.91,17.39,17.39,0,0,0-7.51-.8c-.53,0-.8-.46-.87-1.45s0-1.4.87-1.4h52c.67,0,1,.47,1,1.46s-.33,1.46-1,1.46a36.54,36.54,0,0,0-12,1.52,11.21,11.21,0,0,0-5.74,4.51,39.43,39.43,0,0,0-3.41,9,139.9,139.9,0,0,1-16.3,37.65,219,219,0,0,0,28,17.36,98.6,98.6,0,0,0,21.91,8.75C156.18,162,156.18,162.53,156.18,163.26Zm-64.39-17.5a62,62,0,0,1-5.62-4.31,291.59,291.59,0,0,1-27.85-25.19A206.85,206.85,0,0,1,35.81,89.75a61.52,61.52,0,0,0-13.36,15.11,32.91,32.91,0,0,0-4.88,17.77,34.87,34.87,0,0,0,5.21,18.42,37.13,37.13,0,0,0,14.76,13.66,44.54,44.54,0,0,0,21.38,5.1,45.26,45.26,0,0,0,32.93-13.92ZM47.7,76A100.72,100.72,0,0,0,66.87,57.28,34.38,34.38,0,0,0,73.55,36.6a23.68,23.68,0,0,0-5.61-16.7,19.77,19.77,0,0,0-15.1-6q-18,0-18,22a78.37,78.37,0,0,0,13,40.23Z"/><path class="cls-1" d="M224.66,2.37h61.92a51.66,51.66,0,0,1,36.37,15,50.76,50.76,0,0,1,0,72.17,51.54,51.54,0,0,1-36.37,15H242.16v60.25h-17.5ZM286.58,88.2A35.2,35.2,0,0,0,311.38,78a34.61,34.61,0,0,0,0-49.21,35.24,35.24,0,0,0-24.8-10.19H242.16V88.2Z"/><path class="cls-1" d="M432.34,2.37H448.7l67.81,162.32H497.8l-18.7-45.2H402l-18.64,45.2H364.6Zm40.08,100.88L440.89,26.76,409,103.58Z"/><path class="cls-1" d="M567.4,2.38h65.4a49.43,49.43,0,0,1,32.32,11.17,48.65,48.65,0,0,1-16,83.94l38.61,67.21h-20l-36.2-64.89H584.77V164.7h-17.5Zm65.4,81.33a32.87,32.87,0,0,0,23.14-9.52,32.28,32.28,0,0,0,0-45.92,32.87,32.87,0,0,0-23.14-9.52H584.9v65Z"/><path class="cls-1" d="M777.43,18.61H726.06V2.37H846.3V18.61H794.86V164.42H777.43Z"/><path class="cls-1" d="M896.92,2.37h15.17l100.53,131V2.37h17.51V164.69H1015l-100.2-131v131h-17.5Z"/><path class="cls-1" d="M1100.8,2.37H1213V18.61H1118.1V72h76.15V88.2H1118.1v60.32h97v16.17H1100.8Z"/><path class="cls-1" d="M1269.07,2.38h65.47a49.43,49.43,0,0,1,32.32,11.17,48.65,48.65,0,0,1-16,83.94l38.54,67.21h-20l-36.27-64.89h-46.76V164.7h-17.3Zm65.47,81.33a32.87,32.87,0,0,0,23.14-9.52,32.28,32.28,0,0,0,0-45.92,32.87,32.87,0,0,0-23.14-9.52h-48v65Z"/><path class="cls-1" d="M1445,130.9a55.33,55.33,0,0,0,44.42,19.89c24.52,0,37.34-12.8,37.34-30.16,0-41.76-88.77-18.56-88.77-76.55,0-23.66,20-44.08,52.57-44.08a63.74,63.74,0,0,1,47.89,20.88l-11.69,11.6a45.84,45.84,0,0,0-16.24-12.2,46.34,46.34,0,0,0-20-4c-22.45,0-35.07,13.26-35.07,27.84,0,41.75,88.84,18.56,88.84,76.55,0,26.51-20,46.39-54.91,46.39a69.15,69.15,0,0,1-55-24.32Z"/></svg>