<svg xmlns="http://www.w3.org/2000/svg" xmlns:xlink="http://www.w3.org/1999/xlink"
    viewBox="0 0 92 92" width="92" height="92">
    <defs>
        <style>
            .cls-1 {
                fill: none;
            }

            .cls-2 {
                clip-path: url(#clip-path);
            }

            .cls-3 {
                fill: #183029;
            }

            .cls-4 {
                fill: #fff;
            }
        </style>
        <clipPath id="clip-path">
            <rect class="cls-1" width="92" height="92" />
        </clipPath>
    </defs>
    <g class="cls-2">
        <path class="cls-3"
            d="M46,0A31.66,31.66,0,0,0,14.38,31.62v.12a35.08,35.08,0,0,0,4.84,17.79L43.44,90.67A2.71,2.71,0,0,0,45.76,92h0a2.71,2.71,0,0,0,2.32-1.31L72.65,49.62a35.1,35.1,0,0,0,5-18A31.66,31.66,0,0,0,46,0Z" />
    </g>
    <path class="cls-4" d="M35,34.6l-4.34-7.54h1.42l3.51,6.22h.09l3.51-6.22h1.42L36.27,34.6v4.07H35Z" />
    <path class="cls-4"
        d="M53.43,27.06h4.45a3.66,3.66,0,0,1,2.6,1.07,3.61,3.61,0,0,1,0,5.15,3.66,3.66,0,0,1-2.6,1.07H54.71v4.32H53.45Zm4.45,6.13a2.54,2.54,0,0,0,1.78-.72,2.49,2.49,0,0,0,0-3.52,2.51,2.51,0,0,0-1.78-.73H54.71v5Z" />
    <path class="cls-4"
        d="M51.42,38.58c0,.05,0,.09-.06.09h-2a4.45,4.45,0,0,1-2.14-1.1A4.44,4.44,0,0,1,44,38.86a4,4,0,0,1-1.75-.33,2.33,2.33,0,0,1-1-.9,2.28,2.28,0,0,1-.34-1.19,2.43,2.43,0,0,1,.58-1.6,9.79,9.79,0,0,1,1.68-1.47,5.5,5.5,0,0,1-.47-.81,4.34,4.34,0,0,1-.48-1.79,2.63,2.63,0,0,1,1.35-2.3A2.91,2.91,0,0,1,45,28.11a2.45,2.45,0,0,1,1.42.38,1.47,1.47,0,0,1,.45.54,1.52,1.52,0,0,1,.13.69,2.17,2.17,0,0,1-.33,1.16,3.85,3.85,0,0,1-.81.9c-.32.25-.75.56-1.3.93l-.3.2a15.23,15.23,0,0,0,3.51,3.61,4.34,4.34,0,0,0,.48-2.06,1.6,1.6,0,0,0-.26-1,1.16,1.16,0,0,0-.44-.27,1.24,1.24,0,0,0-.51,0s0,0-.06-.1,0-.09.06-.09h3.53s.06,0,.06.1,0,.09-.06.09a2.54,2.54,0,0,0-.82.11.83.83,0,0,0-.39.3,2.79,2.79,0,0,0-.22.61A9.82,9.82,0,0,1,48,36.74a15.33,15.33,0,0,0,1.89,1.18,6.69,6.69,0,0,0,1.48.58S51.42,38.52,51.42,38.58Zm-4.36-1.19a3.57,3.57,0,0,1-.38-.3,20.3,20.3,0,0,1-1.9-1.69,14.81,14.81,0,0,1-1.52-1.82,4.26,4.26,0,0,0-.92,1A2.13,2.13,0,0,0,42,35.8a2.33,2.33,0,0,0,.35,1.26,2.58,2.58,0,0,0,1,.94,3,3,0,0,0,1.45.34A3.16,3.16,0,0,0,46,38.1,3.22,3.22,0,0,0,47.06,37.39Zm-3-4.73a6.52,6.52,0,0,0,1.3-1.27A2.3,2.3,0,0,0,45.84,30a1.53,1.53,0,0,0-.38-1.12,1.32,1.32,0,0,0-.46-.32,1.35,1.35,0,0,0-.56-.09c-.81,0-1.22.5-1.22,1.49A5.38,5.38,0,0,0,44.07,32.66Z" />
</svg>