<svg id="Layer_1" data-name="Layer 1" xmlns="http://www.w3.org/2000/svg" viewBox="0 0 1376.7 213.31"><defs><style>.cls-1{fill:#132d26;}</style></defs><path class="cls-1" d="M77.55,137.74,0,3H25.59L88.3,114h1.45L152.45,3h25.6L100.41,137.74v72.54H78Z"/><path class="cls-1" d="M281.55,3h20.91L389,210.28H365.08l-23.81-57.73H243.08l-23.89,57.73H195.3Zm51.19,128.84L292.48,34.13l-40.27,97.69Z"/><path class="cls-1" d="M454.3,3h22.43V189.21H584.14v20.73H454.3Z"/><path class="cls-1" d="M649,3h22.44v207.3H649Z"/><path class="cls-1" d="M761.09,3h22.43V189.21H890.93v20.73H761.09Z"/><path class="cls-1" d="M1040,0a108.05,108.05,0,0,1,59.72,18A106.13,106.13,0,0,1,1116,182.07,108,108,0,0,1,950.6,165.91,106.35,106.35,0,0,1,998.76,8,107.76,107.76,0,0,1,1040,0Zm85.32,106.66a84.19,84.19,0,0,0-15-46.7,85.43,85.43,0,0,0-154.11,31.8,84.38,84.38,0,0,0,36.49,86.54,86.92,86.92,0,0,0,80.26,7.82,84,84,0,0,0,46.2-46.62,83.16,83.16,0,0,0,5.86-32.84Z"/><path class="cls-1" d="M1192.08,3H1216l68.67,176.24L1352.89,3h23.81l-82.07,207.3h-20.91Z"/></svg>