<svg width="48" height="48" viewBox="0 0 48 48" fill="none" xmlns="http://www.w3.org/2000/svg">
<g clip-path="url(#clip0_2702_39)">
<path fill-rule="evenodd" clip-rule="evenodd" d="M0 0H48V48H0V0ZM43.3515 13.0635V12.6111C43.3515 11.8813 43.2601 11.2301 43.0777 10.6576C42.8995 10.0807 42.6457 9.58901 42.3164 9.18255C41.9912 8.7761 41.6026 8.46581 41.1505 8.25164C40.7023 8.03748 40.2047 7.93042 39.6574 7.93042C39.1141 7.93042 38.6164 8.03748 38.1643 8.25164C37.7162 8.46581 37.3276 8.7761 36.9984 9.18255C36.6733 9.58901 36.4214 10.0807 36.243 10.6576C36.0645 11.2301 35.9753 11.8813 35.9753 12.6111V13.0635C35.9753 13.7889 36.0645 14.4401 36.243 15.017C36.4254 15.5939 36.6812 16.0856 37.0103 16.492C37.3395 16.8941 37.7281 17.2022 38.1762 17.4164C38.6283 17.6305 39.126 17.7376 39.6693 17.7376C40.2166 17.7376 40.7142 17.6305 41.1624 17.4164C41.6145 17.2022 42.0029 16.8941 42.3281 16.492C42.6536 16.0856 42.9053 15.5939 43.0836 15.017C43.2622 14.4401 43.3515 13.7889 43.3515 13.0635ZM41.549 12.598V13.0635C41.549 13.566 41.5074 14.0119 41.4241 14.4008C41.3408 14.7854 41.2199 15.111 41.0613 15.3776C40.9026 15.6398 40.7063 15.8386 40.4724 15.9741C40.2384 16.1096 39.9707 16.1774 39.6693 16.1774C39.3679 16.1774 39.1002 16.1096 38.8663 15.9741C38.6323 15.8386 38.434 15.6398 38.2714 15.3776C38.1088 15.111 37.9859 14.7854 37.9026 14.4008C37.8193 14.0119 37.7777 13.566 37.7777 13.0635V12.598C37.7777 12.0911 37.8193 11.6452 37.9026 11.2607C37.9859 10.8761 38.1068 10.5527 38.2655 10.2904C38.4281 10.0282 38.6244 9.83155 38.8544 9.70045C39.0883 9.56497 39.356 9.49722 39.6574 9.49722C39.9588 9.49722 40.2265 9.56497 40.4605 9.70045C40.6944 9.83155 40.8927 10.0282 41.0553 10.2904C41.2179 10.5527 41.3408 10.8761 41.4241 11.2607C41.5074 11.6452 41.549 12.0911 41.549 12.598ZM11.8484 8.06152V17.6065H10.0639V9.60211H6.58406V17.6065H4.7995V8.06152H11.8484ZM16.7797 14.2041H15.1914V17.6065H13.4069V8.06152H16.7797C17.4578 8.06152 18.0388 8.19701 18.5226 8.46798C19.0103 8.73457 19.3831 9.10387 19.6409 9.57586C19.8986 10.0479 20.0275 10.5876 20.0275 11.1951C20.0275 11.8113 19.8986 12.3445 19.6409 12.7947C19.3831 13.2448 19.0103 13.5923 18.5226 13.837C18.0388 14.0818 17.4578 14.2041 16.7797 14.2041ZM15.1914 9.60211V12.6701H16.7797C17.1207 12.6701 17.3983 12.6089 17.6124 12.4866C17.8266 12.3598 17.9833 12.185 18.0824 11.9621C18.1815 11.7392 18.2311 11.4879 18.2311 11.2082C18.2311 10.9242 18.1815 10.6597 18.0824 10.415C17.9833 10.1703 17.8266 9.97359 17.6124 9.825C17.3983 9.67641 17.1207 9.60211 16.7797 9.60211H15.1914ZM23.9654 8.06152H24.4175L27.6534 17.6065H25.75L25.1493 15.5939H22.0365L21.4373 17.6065H19.5398L22.7579 8.06152H23.1981H23.9654ZM22.4951 14.0533H24.6895L23.5909 10.3724L22.4951 14.0533ZM30.241 16.0725V13.4174H31.8471C32.1524 13.4174 32.3983 13.4743 32.5847 13.5879C32.7711 13.6972 32.9059 13.8545 32.9892 14.0599C33.0764 14.2653 33.1201 14.5079 33.1201 14.7876C33.1201 15.0367 33.0725 15.2574 32.9773 15.4497C32.8821 15.642 32.7354 15.7949 32.5371 15.9086C32.3388 16.0178 32.083 16.0725 31.7698 16.0725H30.241ZM33.703 12.5652C33.6308 12.6096 33.5539 12.6498 33.4723 12.6858C33.6571 12.737 33.8212 12.8104 33.9648 12.9061C34.2899 13.1159 34.5259 13.3891 34.6726 13.7256C34.8233 14.0621 34.8986 14.4227 34.8986 14.8072C34.8986 15.4191 34.7777 15.9348 34.5358 16.3544C34.2939 16.7696 33.939 17.0821 33.471 17.2918C33.007 17.5016 32.4399 17.6065 31.7698 17.6065H30.241H29.1346H28.4565V8.06152H31.4783C31.9819 8.06152 32.432 8.11399 32.8286 8.21888C33.2291 8.32377 33.5682 8.4833 33.8458 8.69742C34.1234 8.91158 34.3355 9.18255 34.4822 9.51033C34.629 9.83372 34.7023 10.2183 34.7023 10.6641C34.7023 11.0574 34.6211 11.4202 34.4584 11.7523C34.2998 12.0845 34.048 12.3554 33.703 12.5652ZM32.2873 11.9293C32.0771 12.0211 31.8074 12.067 31.4783 12.067H30.241V9.60211H31.4783C31.8114 9.60211 32.083 9.6436 32.2932 9.72666C32.5073 9.80968 32.664 9.943 32.7632 10.1266C32.8663 10.3101 32.9178 10.5505 32.9178 10.8477C32.9178 11.1099 32.8643 11.3328 32.7572 11.5164C32.6541 11.6955 32.4975 11.8332 32.2873 11.9293ZM7.98218 28.647H9.79236C10.3722 28.647 10.8503 28.5391 11.2264 28.3232C11.6025 28.0986 11.8807 27.7877 12.061 27.3905C12.249 26.9846 12.3431 26.5139 12.3431 25.9784C12.3431 25.4948 12.2569 25.0673 12.0845 24.696C11.9199 24.316 11.6652 24.0223 11.3204 23.8151C10.9757 23.5992 10.5407 23.4912 10.0157 23.4912C9.60036 23.4912 9.2164 23.5819 8.86375 23.7633C8.51109 23.9446 8.22902 24.1994 8.0174 24.5275C7.80583 24.8557 7.70006 25.253 7.70006 25.7194H4.303C4.303 24.683 4.55377 23.7805 5.05526 23.0119C5.56465 22.2433 6.24641 21.6431 7.10056 21.2112C7.95471 20.7795 8.89509 20.5635 9.92167 20.5635C11.0814 20.5635 12.0962 20.7708 12.9661 21.1853C13.8359 21.5912 14.5138 22.1914 14.9996 22.986C15.4855 23.7805 15.7284 24.765 15.7284 25.9396C15.7284 26.5355 15.603 27.1141 15.3523 27.6755C15.1015 28.2282 14.741 28.7291 14.2708 29.1782C13.9308 29.5021 13.5355 29.7794 13.0852 30.0099C13.6618 30.2352 14.155 30.5365 14.5647 30.914C15.0427 31.3458 15.4032 31.8597 15.6461 32.4556C15.889 33.0429 16.0105 33.6949 16.0105 34.4117C16.0105 35.2926 15.8577 36.0785 15.5521 36.7694C15.2465 37.4516 14.8155 38.0303 14.2591 38.5053C13.7105 38.9803 13.068 39.343 12.3314 39.5934C11.5947 39.8352 10.7915 39.9562 9.92167 39.9562C9.20071 39.9562 8.49152 39.8482 7.7941 39.6323C7.10449 39.4078 6.47756 39.0753 5.91338 38.6348C5.35699 38.1858 4.9103 37.6244 4.57334 36.9507C4.24423 36.2685 4.07965 35.461 4.07965 34.5283H7.47672C7.47672 35.0119 7.58641 35.4437 7.80583 35.8237C8.02525 36.2037 8.32694 36.5017 8.71094 36.7176C9.10275 36.9335 9.53767 37.0414 10.0157 37.0414C10.5564 37.0414 11.0187 36.9335 11.4027 36.7176C11.7945 36.493 12.0923 36.1822 12.2961 35.7849C12.5077 35.379 12.6135 34.9083 12.6135 34.3728C12.6135 33.6819 12.4998 33.1292 12.2726 32.7147C12.0453 32.2915 11.7201 31.9806 11.2969 31.782C10.8738 31.5833 10.3722 31.484 9.79236 31.484H7.98218V30.6291V29.5539V28.647ZM29.6166 31.8727V28.6082C29.6166 27.4768 29.5265 26.475 29.3463 25.6028C29.1661 24.7219 28.9074 23.9662 28.5705 23.3358C28.2335 22.6967 27.826 22.1742 27.348 21.7683C26.87 21.3624 26.3332 21.0644 25.7377 20.8745C25.1499 20.6758 24.5113 20.5765 23.8217 20.5765C22.9597 20.5765 22.176 20.732 21.4707 21.0428C20.7655 21.3451 20.1543 21.8201 19.6371 22.4678C19.1277 23.1156 18.7319 23.9489 18.4498 24.968C18.1756 25.9784 18.0385 27.1918 18.0385 28.6082V31.8727C18.0385 33.0127 18.1286 34.0231 18.3088 34.904C18.489 35.7849 18.7476 36.5449 19.0846 37.1839C19.4294 37.8144 19.8369 38.3369 20.3071 38.7514C20.7851 39.166 21.3219 39.4725 21.9174 39.6712C22.513 39.8612 23.1556 39.9562 23.8452 39.9562C24.7072 39.9562 25.4908 39.8007 26.1961 39.4898C26.9013 39.1789 27.5087 38.6996 28.018 38.0519C28.5353 37.3955 28.931 36.5578 29.2053 35.5387C29.4795 34.511 29.6166 33.289 29.6166 31.8727ZM26.2196 28.103V32.3649C26.2196 33.2199 26.1687 33.9454 26.0668 34.5413C25.9649 35.1371 25.8082 35.6208 25.5966 35.9922C25.3928 36.3549 25.1421 36.6226 24.8443 36.7953C24.5543 36.9594 24.2213 37.0414 23.8452 37.0414C23.5395 37.0414 23.2574 36.9896 22.9989 36.886C22.7481 36.7824 22.5247 36.6182 22.3289 36.3937C22.1408 36.1605 21.9762 35.8626 21.8352 35.4999C21.7019 35.1285 21.6001 34.6838 21.5295 34.1656C21.4668 33.6474 21.4355 33.0472 21.4355 32.3649V28.103C21.4355 27.2566 21.4864 26.5398 21.5883 25.9525C21.698 25.3567 21.8547 24.8817 22.0585 24.5275C22.2622 24.1648 22.5091 23.9014 22.799 23.7373C23.0968 23.5733 23.4377 23.4912 23.8217 23.4912C24.1273 23.4912 24.4055 23.543 24.6562 23.6467C24.907 23.7503 25.1303 23.9144 25.3262 24.1389C25.5222 24.3635 25.6867 24.6571 25.8199 25.0198C25.9532 25.3739 26.0511 25.8057 26.1138 26.3153C26.1843 26.8248 26.2196 27.4207 26.2196 28.103ZM43.1992 28.6082V31.8727C43.1992 33.289 43.0623 34.511 42.788 35.5387C42.5134 36.5578 42.1177 37.3955 41.6007 38.0519C41.0913 38.6996 40.484 39.1789 39.7787 39.4898C39.0734 39.8007 38.2898 39.9562 37.4278 39.9562C36.7382 39.9562 36.0956 39.8612 35.5001 39.6712C34.9045 39.4725 34.3677 39.166 33.8897 38.7514C33.4195 38.3369 33.012 37.8144 32.6672 37.1839C32.3302 36.5449 32.0717 35.7849 31.8914 34.904C31.7111 34.0231 31.621 33.0127 31.621 31.8727V28.6082C31.621 27.1918 31.7582 25.9784 32.0325 24.968C32.3146 23.9489 32.7103 23.1156 33.2196 22.4678C33.7369 21.8201 34.3481 21.3451 35.0534 21.0428C35.7586 20.732 36.5423 20.5765 37.4043 20.5765C38.0939 20.5765 38.7325 20.6758 39.3203 20.8745C39.9159 21.0644 40.4526 21.3624 40.9307 21.7683C41.4087 22.1742 41.8159 22.6967 42.1532 23.3358C42.49 23.9662 42.7488 24.7219 42.9287 25.6028C43.109 26.475 43.1992 27.4768 43.1992 28.6082ZM39.8022 32.3649V28.103C39.8022 27.4207 39.7669 26.8248 39.6964 26.3153C39.6337 25.8057 39.5358 25.3739 39.4025 25.0198C39.2693 24.6571 39.1048 24.3635 38.9089 24.1389C38.713 23.9144 38.4896 23.7503 38.2389 23.6467C37.9881 23.543 37.7099 23.4912 37.4043 23.4912C37.0203 23.4912 36.6794 23.5733 36.3816 23.7373C36.0917 23.9014 35.8448 24.1648 35.6411 24.5275C35.4374 24.8817 35.2806 25.3567 35.1709 25.9525C35.069 26.5398 35.0181 27.2566 35.0181 28.103V32.3649C35.0181 33.0472 35.0494 33.6474 35.1121 34.1656C35.1827 34.6838 35.2846 35.1285 35.4178 35.4999C35.5588 35.8626 35.7234 36.1605 35.9114 36.3937C36.1074 36.6182 36.3307 36.7824 36.5815 36.886C36.84 36.9896 37.1222 37.0414 37.4278 37.0414C37.8039 37.0414 38.137 36.9594 38.4269 36.7953C38.7247 36.6226 38.9755 36.3549 39.1792 35.9922C39.3908 35.6208 39.5475 35.1371 39.6494 34.5413C39.7513 33.9454 39.8022 33.2199 39.8022 32.3649Z" fill="white"/>
</g>
<defs>
<clipPath id="clip0_2702_39">
<rect width="48" height="48" fill="white"/>
</clipPath>
</defs>
</svg>
