<svg width="48" height="48" viewBox="0 0 48 48" fill="none" xmlns="http://www.w3.org/2000/svg">
<g clip-path="url(#clip0_2702_171)">
<path fill-rule="evenodd" clip-rule="evenodd" d="M48 0H0V48H48V0ZM25.9341 9.5H22.8867V10.2232C22.8867 10.7048 22.8496 11.7517 22.8035 13.0557C22.7273 15.2088 22.6263 18.063 22.6263 20.2309V23.0382H25.6202C26.2555 23.1357 26.9046 23.0913 27.5207 22.9083C28.1568 22.5612 28.7026 22.07 29.114 21.4741C29.5255 20.8781 29.7912 20.1941 29.8897 19.4771L30.124 18.3593H31.5819V29.8746H29.9939L29.7596 29.0688C29.6623 28.3676 29.4112 27.6965 29.0242 27.1034C28.6372 26.5102 28.1238 26.0097 27.5207 25.6376C26.2617 25.322 24.9651 25.1821 23.6677 25.2217H22.6263V27.2752C22.6263 29.8746 22.7565 33.0199 23.0168 34.7355C22.937 35.5458 23.0703 36.3628 23.4036 37.1059C23.7369 37.849 24.2587 38.4924 24.9173 38.9725C25.3772 39.1063 25.8474 39.2019 26.3231 39.2584C26.7628 39.3129 27.1979 39.3998 27.6248 39.5183C27.7414 39.7479 27.8022 40.0017 27.8022 40.2592C27.8022 40.5166 27.7414 40.7704 27.6248 41H10C9.91218 40.7653 9.91218 40.5069 10 40.2722C10 40.0228 10 39.8653 10.0713 39.753C10.2005 39.5494 10.5643 39.4947 11.5881 39.3104C12.0112 39.2945 12.4254 39.1834 12.7995 38.9854C13.1737 38.7874 13.4982 38.5075 13.7488 38.1667C14.7642 36.841 14.9985 34.2416 14.9985 23.6101C14.9985 13.6024 14.8162 11.6789 13.7488 9.9633C13.4339 9.57844 13.0365 9.26893 12.586 9.05752C12.1355 8.8461 11.6433 8.73815 11.1455 8.74159H10V7H37.9341V16.8777H37.1011C36.5912 17.0888 36.3249 17.199 36.1375 17.1206C35.9327 17.0349 35.8223 16.7236 35.5911 16.0719C34.966 13.6909 33.4339 11.6481 31.3216 10.3792C29.6379 9.67125 27.9341 9.5 25.9341 9.5Z" fill="white"/>
</g>
<defs>
<clipPath id="clip0_2702_171">
<rect width="48" height="48" fill="white"/>
</clipPath>
</defs>
</svg>
