<?xml version="1.0" standalone="no"?>
<!DOCTYPE svg PUBLIC "-//W3C//DTD SVG 20010904//EN"
 "http://www.w3.org/TR/2001/REC-SVG-20010904/DTD/svg10.dtd">
<svg version="1.0" xmlns="http://www.w3.org/2000/svg"
 width="700.000000pt" height="700.000000pt" viewBox="0 0 700.000000 700.000000"
 preserveAspectRatio="xMidYMid meet">
<metadata>
Created by potrace 1.11, written by Peter Selinger 2001-2013
</metadata>
<g transform="translate(0.000000,700.000000) scale(0.100000,-0.100000)"
fill="#000000" stroke="none">
<path d="M0 3500 l0 -3500 3500 0 3500 0 0 3500 0 3500 -3500 0 -3500 0 0
-3500z m1629 453 c146 -260 268 -473 271 -473 3 0 127 213 276 473 l270 472
106 3 106 3 -329 -571 -329 -572 0 -314 0 -314 -100 0 -100 0 0 314 0 314
-321 558 c-177 306 -323 564 -326 571 -4 11 15 13 102 11 l108 -3 266 -472z
m3852 450 c83 -31 183 -98 235 -156 67 -77 122 -195 136 -294 33 -228 -85
-459 -288 -565 -116 -61 -162 -68 -476 -68 l-278 0 0 -330 0 -330 -95 0 -95 0
0 886 0 885 403 -3 c380 -4 405 -5 458 -25z m-2015 -154 c119 -45 171 -126
161 -249 -11 -135 -102 -250 -310 -390 -53 -36 -96 -69 -97 -74 0 -15 100
-143 192 -246 125 -139 329 -312 343 -290 29 46 57 166 62 261 7 135 -11 184
-79 218 -24 11 -59 21 -76 21 -22 0 -32 5 -32 15 0 13 35 15 277 13 210 -2
277 -6 281 -15 2 -9 -7 -13 -27 -13 -65 0 -130 -21 -155 -50 -13 -16 -41 -80
-62 -142 -39 -119 -84 -221 -133 -304 l-30 -51 82 -53 c117 -76 270 -155 362
-187 124 -44 112 -53 -73 -53 -129 0 -169 3 -213 19 -79 27 -148 64 -208 111
l-52 41 -62 -50 c-75 -62 -180 -115 -267 -135 -100 -24 -291 -21 -376 5 -125
38 -204 104 -252 209 -21 44 -26 70 -26 135 0 139 62 237 241 383 51 42 93 79
93 83 0 3 -18 37 -40 75 -157 272 -120 519 100 662 112 73 263 93 376 51z"/>
<path d="M4810 3881 l0 -381 270 0 c247 0 276 2 332 21 110 37 192 111 239
214 18 40 23 69 23 145 1 88 -2 101 -31 161 -39 80 -111 150 -191 187 l-57 27
-292 3 -293 3 0 -380z"/>
<path d="M3155 4196 c-94 -42 -124 -186 -75 -371 21 -81 95 -245 111 -245 27
0 198 179 229 240 26 50 43 147 37 201 -6 52 -35 115 -64 141 -50 45 -173 63
-238 34z"/>
<path d="M2995 3358 c-93 -98 -120 -158 -120 -268 0 -75 4 -93 32 -152 37 -78
108 -154 173 -185 179 -87 384 -63 516 59 l43 40 -76 61 c-189 152 -324 286
-445 444 l-56 73 -67 -72z"/>
</g>
</svg>
