<svg width="48" height="48" viewBox="0 0 48 48" fill="none" xmlns="http://www.w3.org/2000/svg">
<g clip-path="url(#clip0_2702_200)">
<g clip-path="url(#clip1_2702_200)">
<path fill-rule="evenodd" clip-rule="evenodd" d="M48 0H0V48H48V0ZM30.801 7.00167C28.8276 8.64895 24.1573 11.8776 23.5653 6.14508C23.1048 6.07919 20.9341 6.67221 20.6052 6.93578C20.4642 7.02991 19.8534 8.16621 19.444 8.9279C19.2802 9.23256 19.1487 9.4773 19.0923 9.57143C18.8136 10.05 18.393 10.7163 17.9035 11.4918C15.9664 14.5605 12.9494 19.3401 13.3695 20.9706C13.4353 21.2342 13.6326 21.1683 13.6326 21.1683L18.3687 19.2575C19.0428 19.0087 19.6212 16.3641 20.1968 13.7322C20.6884 11.4843 21.178 9.24565 21.7234 8.51717C22.1181 7.99004 22.1839 8.31949 22.2497 8.71484C22.7101 10.5598 24.0257 13.9203 26.4595 13.6567C27.6436 13.5249 29.4196 12.6683 29.7485 12.3389C29.9458 12.2071 30.0774 12.3389 30.0774 12.4706C30.0774 12.6024 29.9458 12.7342 29.9458 12.7342C28.5241 14.7775 26.3909 16.2244 24.1193 17.7652C21.556 19.5037 18.8166 21.3618 16.7242 24.3311C14.7509 27.0985 13.3037 30.3272 13.0406 33.7535C12.7117 37.8388 14.3562 42.2535 18.8949 42.9124C28.3013 44.2962 39.1549 28.9435 35.1424 20.5753C34.0241 18.2691 31.1299 18.2032 29.0907 19.2575C24.6177 21.5637 20.671 28.9435 20.5394 33.8853C20.4736 35.0714 20.5394 36.2574 20.8025 37.3776C21.5919 40.6062 24.3546 39.552 24.4862 37.7729C21.6577 36.7187 23.7626 21.959 28.2356 21.1024C29.1565 20.9047 29.8143 22.0908 30.1432 22.7497C32.577 27.8233 27.3147 45.021 20.079 41.0016C18.8292 40.3427 18.2371 38.6954 17.974 37.4435C16.9873 32.5016 18.8292 26.5714 22.1181 22.7497C23.0484 21.7048 24.0512 20.7326 25.054 19.7604C26.3911 18.4641 27.7281 17.1678 28.8934 15.6993C30.1432 14.1179 31.1956 12.6024 32.2481 10.8893C32.3034 10.7968 32.3666 10.6941 32.4353 10.5822C32.8564 9.89638 33.4875 8.86872 33.8268 7.79236C34.2215 6.7381 34.1557 6.0133 33.9584 5.42027C33.761 5.02493 33.3006 4.89314 32.9717 5.09082C32.6869 5.23344 32.3058 5.6076 31.891 6.01492C31.5392 6.36031 31.1632 6.72955 30.801 7.00167Z" fill="white"/>
</g>
</g>
<defs>
<clipPath id="clip0_2702_200">
<rect width="48" height="48" fill="white"/>
</clipPath>
<clipPath id="clip1_2702_200">
<rect width="48" height="48" fill="white"/>
</clipPath>
</defs>
</svg>
