<svg width="48" height="48" viewBox="0 0 48 48" fill="none" xmlns="http://www.w3.org/2000/svg">
<g clip-path="url(#clip0_2702_111)">
<path fill-rule="evenodd" clip-rule="evenodd" d="M26.7069 0H0V26.7422C8.2454 27.5581 15.2449 25.1105 20.7947 18.9915C25.6876 13.5977 27.5224 7.2068 26.7069 0ZM0.022644 48H39.8905C35.3827 43.5127 31.0335 39.1615 26.7749 34.9008C28.1425 33.5439 29.4932 32.1983 30.841 30.8555C32.1945 29.507 33.5451 28.1614 34.907 26.8102C39.1883 31.0708 43.5602 35.4221 48 39.864V0.022644H38.2822C38.9165 10.8782 35.7225 20.3286 28.0208 28.034C20.2964 35.7394 10.8277 38.9348 0.022644 38.2776V48Z" fill="white"/>
</g>
<defs>
<clipPath id="clip0_2702_111">
<rect width="48" height="48" fill="white"/>
</clipPath>
</defs>
</svg>
